<?xml version="1.0" standalone="no"?>
<!DOCTYPE svg PUBLIC "-//W3C//DTD SVG 20010904//EN"
 "http://www.w3.org/TR/2001/REC-SVG-20010904/DTD/svg10.dtd">
<svg version="1.0" xmlns="http://www.w3.org/2000/svg"
 width="656.000000pt" height="656.000000pt" viewBox="0 0 656.000000 656.000000"
 preserveAspectRatio="xMidYMid meet">
<metadata>
Created by potrace 1.14, written by Peter Selinger 2001-2017
</metadata>
<g transform="translate(0.000000,656.000000) scale(0.100000,-0.100000)"
fill="#000000" stroke="none">
<path d="M3953 5590 c-1 -11 2 -20 7 -20 4 0 11 -7 14 -16 4 -10 2 -13 -7 -8
-8 5 -7 2 2 -9 7 -9 10 -17 5 -17 -5 -1 1 -9 14 -20 13 -11 21 -23 18 -28 -3
-4 6 -21 20 -37 13 -15 24 -39 24 -52 0 -13 3 -22 8 -20 4 3 13 -1 20 -9 10
-11 10 -14 0 -14 -10 0 -9 -3 1 -9 10 -7 14 -32 14 -95 1 -47 5 -86 10 -86 5
0 7 -9 4 -20 -3 -11 -2 -18 1 -16 4 2 13 -2 20 -10 7 -8 8 -14 3 -14 -7 0 -7
-9 -3 -22 12 -32 8 -126 -7 -170 -7 -20 -12 -54 -11 -75 0 -21 1 -100 2 -175
0 -76 4 -136 7 -134 4 3 6 -13 6 -34 0 -23 -4 -36 -10 -32 -5 3 -3 -3 6 -14
13 -17 17 -34 9 -49 -1 -3 -3 -8 -5 -12 -1 -5 -4 -15 -7 -23 -15 -38 -15 -61
-1 -75 8 -8 10 -15 5 -15 -12 0 -10 -19 2 -39 7 -11 5 -13 -7 -8 -8 3 -25 -3
-38 -14 -12 -10 -27 -19 -33 -19 -18 -1 -76 -58 -76 -75 0 -9 8 -18 18 -22 32
-11 72 -56 72 -81 0 -39 -30 -92 -63 -108 -16 -9 -63 -18 -103 -21 -63 -5 -77
-3 -94 12 -20 19 -20 19 21 61 26 26 37 44 30 49 -7 4 -10 1 -9 -7 2 -8 -5
-12 -17 -11 -11 1 -14 0 -8 -3 10 -4 10 -9 -1 -20 -8 -8 -20 -14 -26 -14 -6 0
-9 -4 -5 -9 3 -5 1 -12 -5 -16 -15 -9 10 -43 42 -56 16 -6 28 -15 28 -20 0 -5
7 -9 16 -9 8 0 22 -7 30 -15 9 -8 12 -15 8 -15 -4 0 0 -8 9 -18 13 -14 14 -21
5 -30 -8 -8 -8 -12 -1 -12 14 0 22 -69 10 -77 -6 -3 -7 -1 -3 5 3 6 2 14 -4
17 -6 4 -8 15 -5 25 3 10 1 21 -5 25 -6 3 -8 10 -5 15 3 5 1 11 -5 15 -6 4 -8
11 -5 16 4 5 -1 9 -10 9 -9 0 -13 5 -10 10 3 6 -1 10 -9 10 -9 0 -16 5 -16 10
0 6 -8 10 -18 10 -10 0 -22 3 -26 7 -4 5 -22 8 -39 9 -20 0 -31 5 -29 13 1 7
-2 10 -7 7 -5 -4 -12 -2 -16 4 -6 10 -43 -6 -57 -25 -4 -5 -8 -1 -8 10 -1 19
-1 19 -11 2 -8 -14 -6 -22 13 -37 13 -11 26 -19 30 -20 4 0 30 -21 57 -47 l50
-48 -10 -55 c-6 -30 -17 -66 -26 -78 -8 -13 -16 -37 -18 -53 -4 -26 -2 -28 16
-19 11 6 24 8 29 5 6 -3 10 -1 10 5 0 6 5 8 10 5 6 -3 10 -1 10 4 0 6 9 11 19
11 11 0 26 7 34 15 8 8 17 11 21 8 3 -4 6 1 6 11 0 9 -10 21 -22 26 -22 8 -22
9 4 7 15 -1 25 -3 23 -6 -3 -2 0 -10 6 -17 13 -16 4 -34 -17 -34 -8 0 -14 -5
-14 -11 0 -5 -4 -7 -10 -4 -5 3 -10 1 -10 -4 0 -6 -7 -11 -15 -11 -9 0 -18 -6
-21 -13 -3 -9 -16 -12 -34 -9 -21 3 -32 -1 -36 -12 -3 -9 -11 -13 -17 -9 -6 4
-8 0 -4 -10 4 -11 -1 -21 -14 -28 -19 -9 -19 -9 -10 10 17 30 14 32 -34 25
-65 -8 -139 20 -179 69 -17 21 -56 66 -87 100 -31 34 -75 86 -98 115 -23 28
-45 52 -50 52 -4 0 -35 25 -69 56 -48 43 -66 54 -83 49 -14 -5 -19 -13 -16
-26 3 -10 1 -17 -4 -13 -5 3 -9 0 -9 -5 0 -6 9 -11 21 -11 11 0 17 -4 14 -10
-3 -5 -1 -10 6 -10 7 0 23 -9 35 -21 12 -11 30 -22 40 -24 11 -1 18 -8 17 -13
-2 -6 4 -9 12 -6 10 4 15 0 15 -11 0 -11 5 -15 16 -11 8 3 12 2 9 -4 -3 -6 -1
-10 5 -10 7 0 10 -6 8 -12 -4 -15 68 -89 77 -79 3 3 3 -2 -1 -12 -4 -12 -1
-17 11 -17 12 0 15 -5 10 -20 -5 -15 -3 -18 9 -14 11 4 16 0 16 -12 0 -16 -2
-17 -10 -4 -5 8 -10 11 -10 7 0 -4 -18 11 -40 35 -22 23 -38 48 -36 54 3 8 -1
11 -10 7 -8 -3 -14 1 -14 11 0 9 -4 16 -10 16 -5 0 -10 7 -10 16 0 9 -5 12
-12 8 -7 -4 -8 -3 -4 4 4 7 1 12 -9 12 -9 0 -13 5 -10 10 3 6 1 10 -5 10 -6 0
-18 7 -27 16 -9 8 -22 13 -30 10 -8 -3 -11 -1 -8 4 3 6 2 10 -3 10 -6 0 -29
16 -52 35 -23 19 -40 35 -37 35 3 0 -11 16 -30 35 -19 19 -38 35 -42 35 -4 0
-13 9 -21 20 -8 11 -23 20 -33 20 -17 0 -18 2 -6 18 12 15 12 16 -2 5 -9 -7
-20 -9 -25 -5 -5 4 -1 -2 9 -14 9 -11 14 -24 10 -27 -3 -4 -1 -7 5 -7 7 0 12
-9 12 -21 0 -11 5 -17 10 -14 6 3 10 0 10 -7 0 -7 18 -32 39 -55 22 -23 36
-45 33 -49 -4 -4 1 -4 11 -1 11 4 17 1 17 -8 0 -8 9 -15 19 -15 11 0 30 -13
44 -29 14 -17 28 -27 31 -23 4 3 4 -1 0 -11 -4 -12 -1 -17 10 -17 9 0 16 -5
16 -11 0 -5 -6 -7 -12 -3 -7 4 -5 -2 5 -13 10 -11 17 -24 15 -29 -5 -16 34
-64 46 -57 6 4 4 -2 -4 -13 -8 -10 -11 -16 -6 -12 11 9 46 -23 39 -35 -3 -6
-1 -7 5 -3 7 4 12 2 12 -4 0 -7 5 -10 11 -8 14 5 12 23 -3 23 -7 0 -12 8 -12
18 1 9 -2 15 -6 12 -4 -3 -10 7 -13 21 -4 21 -1 25 14 21 11 -3 17 -1 13 4 -8
14 6 11 22 -5 8 -8 14 -22 14 -30 0 -9 8 -16 19 -16 11 0 23 -5 27 -12 5 -7 3
-8 -7 -3 -11 7 -12 6 -2 -7 7 -8 11 -17 8 -20 -3 -2 2 -5 10 -5 8 0 12 5 9 11
-5 10 3 0 39 -45 6 -8 13 -22 15 -30 2 -8 10 -19 19 -26 9 -7 13 -19 9 -28 -3
-9 -2 -13 4 -10 6 3 10 -1 10 -9 0 -9 5 -16 10 -16 6 0 10 -9 10 -20 0 -11 6
-20 13 -20 6 0 21 -7 32 -15 18 -14 18 -16 3 -31 -10 -10 -36 -18 -65 -19 -62
-3 -65 -3 -59 -14 3 -5 -6 -8 -19 -8 -26 0 -28 4 -27 70 1 42 8 40 -123 38
-44 -1 -81 -6 -83 -11 -2 -6 -10 -10 -18 -10 -8 0 -14 -4 -14 -10 0 -5 -7 -10
-15 -10 -8 0 -15 -6 -15 -12 0 -9 -4 -8 -10 2 -5 8 -10 10 -10 4 0 -11 -25
-15 -49 -8 -11 3 -11 7 -1 19 7 8 9 15 5 15 -4 0 -3 6 3 13 6 6 13 32 17 57 4
25 8 50 9 57 1 7 5 15 8 18 9 9 -3 45 -13 39 -5 -3 -9 0 -9 5 0 6 5 11 10 11
6 0 10 6 10 13 0 7 9 13 20 14 11 1 18 -2 15 -7 -8 -13 9 -20 25 -9 9 5 10 9
3 9 -7 0 -9 9 -6 23 3 12 2 19 -2 15 -8 -8 -42 31 -38 44 2 4 -4 5 -12 2 -10
-4 -18 2 -24 17 -4 13 -12 24 -17 24 -5 0 -8 3 -6 8 2 6 -13 9 -34 6 -4 0 -11
5 -15 13 -7 10 -12 11 -29 0 -16 -10 -20 -10 -20 0 0 10 -2 10 -8 1 -5 -8 -13
-9 -22 -3 -8 5 -21 5 -32 -1 -14 -8 -18 -6 -18 7 0 10 -6 14 -14 11 -7 -3 -19
0 -26 6 -10 9 -11 9 -6 0 4 -8 1 -13 -8 -13 -9 0 -16 -4 -16 -8 0 -4 -20 -9
-44 -9 -45 -1 -116 -28 -116 -43 0 -5 -10 -6 -22 -2 -16 4 -19 2 -13 -8 6 -10
4 -11 -6 -4 -19 11 -39 14 -39 5 0 -4 -18 -7 -40 -6 -22 1 -38 -1 -35 -3 3 -3
-3 -14 -12 -25 -10 -10 -17 -22 -15 -25 1 -3 -17 -7 -40 -9 -23 -2 -48 -9 -57
-16 -12 -10 -13 -9 -7 1 7 11 4 12 -13 2 -12 -6 -53 -10 -91 -9 -44 1 -75 -3
-85 -11 -12 -10 -15 -10 -15 0 0 8 -10 3 -23 -11 -13 -13 -22 -27 -20 -31 2
-5 -2 -8 -11 -8 -8 0 -17 -6 -19 -12 -4 -10 -6 -10 -6 0 -1 6 -10 12 -22 12
-11 0 -17 5 -14 10 3 6 -5 11 -19 11 -38 2 -44 3 -51 11 -4 4 -16 3 -26 -3
-11 -5 -19 -6 -19 -2 0 4 -5 0 -11 -10 -6 -9 -14 -15 -20 -12 -5 4 -9 1 -9 -5
0 -6 -5 -8 -12 -4 -6 4 -8 3 -5 -3 7 -10 -44 -53 -63 -53 -6 0 -8 -4 -5 -10 3
-5 -1 -10 -10 -10 -10 0 -13 -5 -9 -11 5 -8 -1 -10 -20 -7 -14 3 -26 2 -26 -1
0 -3 -22 -7 -50 -8 -74 -4 -90 -6 -90 -16 0 -4 -4 -6 -9 -2 -6 3 -14 -3 -20
-12 -6 -11 -11 -13 -11 -5 0 9 -5 10 -19 3 -10 -6 -21 -8 -24 -4 -3 3 -14 2
-24 -2 -10 -5 -24 -9 -31 -11 -8 -1 -21 -6 -30 -10 -19 -9 -49 -15 -74 -15
-10 0 -18 -4 -18 -9 0 -5 -9 -9 -20 -9 -11 -1 -29 -1 -40 -2 -11 0 -20 -4 -20
-8 0 -5 -12 -8 -26 -8 -15 0 -30 -6 -34 -13 -4 -7 -15 -10 -24 -7 -9 4 -16 3
-16 -2 0 -10 -133 -2 -140 8 -3 5 -71 8 -153 7 -81 -1 -147 2 -147 6 0 3 -9 4
-20 1 -11 -3 -20 -1 -20 4 0 11 -233 14 -240 3 -3 -5 -21 -9 -40 -11 -19 -2
-40 -7 -47 -12 -7 -5 -17 -6 -23 -2 -5 3 -10 2 -10 -3 0 -6 -15 -8 -34 -5 -22
3 -39 -1 -50 -12 -10 -10 -16 -12 -16 -4 0 7 -4 8 -12 2 -7 -5 -48 -8 -90 -8
-43 1 -78 -2 -78 -6 0 -17 32 -24 112 -24 58 0 89 -4 92 -11 3 -7 18 -10 38
-8 18 3 51 -1 73 -9 22 -7 50 -12 62 -11 12 1 20 -3 17 -7 -6 -11 -19 -11 271
-11 137 0 251 4 265 10 14 5 28 8 32 5 4 -2 18 2 30 8 33 18 85 19 146 4 30
-8 61 -11 70 -8 10 4 13 2 8 -5 -4 -7 0 -12 11 -13 10 -1 33 -2 51 -3 18 -1
36 -6 40 -12 4 -5 18 -10 32 -9 14 0 33 -6 42 -14 16 -13 58 -22 120 -25 14 0
24 -4 21 -8 -2 -5 3 -8 11 -8 25 0 30 -1 51 -12 10 -6 33 -11 49 -10 16 0 38
-4 49 -10 15 -8 18 -7 12 3 -6 8 -4 10 6 3 19 -11 40 -14 34 -4 -2 4 12 7 33
6 31 -1 38 -5 42 -26 7 -36 42 -89 62 -95 9 -3 18 -16 20 -28 4 -26 32 -30 67
-9 20 12 60 18 133 21 16 1 19 16 6 36 -3 6 0 18 7 28 22 30 107 4 88 -27 -4
-5 1 -7 10 -3 11 4 25 -6 44 -29 30 -38 90 -74 123 -74 11 0 20 -7 20 -16 0
-8 5 -12 10 -9 6 3 10 2 10 -4 0 -13 53 -3 62 12 4 7 8 8 8 2 0 -5 5 -2 11 8
6 9 15 14 21 11 6 -4 8 -3 5 3 -16 26 67 50 101 29 7 -4 12 -3 12 3 0 5 9 9
20 8 18 -1 24 -9 22 -28 -2 -11 35 -40 52 -43 9 -1 23 -11 32 -22 8 -10 12
-12 8 -4 -4 8 13 -6 39 -32 41 -43 57 -53 80 -49 4 0 7 -5 7 -12 0 -18 37 -19
44 -1 3 8 10 14 16 14 6 0 8 -6 5 -12 -4 -7 3 -3 14 10 12 14 25 20 32 16 8
-4 9 -3 5 4 -4 7 -2 12 3 12 6 0 11 7 11 16 0 8 4 12 10 9 5 -3 12 5 16 19 3
13 12 27 20 30 8 3 14 12 14 20 0 8 5 18 12 22 7 5 8 2 3 -7 -5 -8 -4 -11 0
-6 16 14 16 54 0 61 -10 3 -15 -1 -15 -12 0 -12 -6 -7 -19 13 -11 19 -15 34
-9 41 5 8 4 17 -4 26 -16 17 -20 33 -20 81 1 25 -3 35 -10 31 -7 -5 -9 0 -6
14 3 12 1 23 -6 25 -18 7 2 20 34 22 19 1 30 -3 30 -12 0 -7 4 -13 10 -13 5 0
7 8 4 18 -4 9 2 6 12 -8 12 -16 26 -25 39 -22 16 2 17 1 5 -7 -15 -11 4 -13
115 -13 95 0 91 -1 92 40 1 57 2 59 19 66 17 6 47 -11 40 -23 -2 -3 20 -5 49
-4 42 2 54 -1 59 -14 4 -9 1 -21 -5 -27 -9 -8 -10 -7 -4 4 5 8 -3 4 -16 -10
-13 -14 -20 -28 -16 -31 5 -4 4 -8 -3 -11 -15 -5 -21 -50 -8 -59 11 -7 -40
-59 -59 -59 -8 0 -11 -5 -7 -12 5 -7 2 -9 -9 -5 -12 4 -14 2 -10 -10 5 -13 2
-15 -12 -9 -11 4 -16 4 -13 0 11 -11 -11 -44 -29 -44 -9 0 -14 -3 -10 -6 3 -3
-5 -17 -18 -30 -25 -25 -59 -32 -70 -14 -3 5 -2 10 3 10 6 0 8 10 4 22 -3 11
-1 19 4 16 5 -3 28 14 51 38 23 24 37 44 31 44 -5 0 -16 -7 -25 -15 -8 -8 -19
-13 -23 -10 -5 3 -7 -4 -5 -15 2 -11 0 -20 -6 -20 -5 0 -9 6 -9 13 0 6 -6 3
-12 -8 -6 -11 -19 -26 -27 -33 -10 -8 -11 -11 -2 -6 10 5 12 3 7 -5 -5 -7 -14
-10 -22 -7 -7 3 -16 0 -20 -6 -4 -7 -3 -8 4 -4 7 4 12 3 12 -3 0 -6 -9 -15
-21 -21 -11 -7 -18 -14 -15 -18 3 -3 -1 -16 -10 -30 -12 -18 -12 -23 -3 -17 8
3 5 -1 -5 -9 -11 -9 -23 -16 -28 -16 -4 0 -7 -5 -6 -11 2 -6 -3 -14 -11 -17
-9 -3 -11 0 -6 8 5 9 4 11 -4 6 -6 -4 -9 -11 -6 -15 7 -13 -31 -52 -53 -54
-12 0 -18 -5 -15 -10 3 -4 -4 -11 -16 -14 -12 -3 -21 -10 -21 -15 0 -5 -4 -7
-9 -4 -9 6 -21 -15 -28 -48 -2 -11 -8 -26 -15 -33 -6 -7 -8 -16 -5 -19 3 -4
-1 -13 -9 -21 -11 -12 -12 -18 -3 -29 9 -12 9 -13 -3 -9 -17 7 -33 -21 -17
-30 5 -4 8 -1 7 6 -2 7 4 13 12 14 8 0 15 7 15 15 1 8 6 14 13 12 15 -3 52 33
52 51 0 9 2 9 9 -1 6 -10 10 -8 14 8 4 15 11 21 21 17 10 -4 14 0 11 14 -2 11
0 17 4 14 5 -3 12 2 15 11 3 8 10 13 15 9 5 -3 12 -1 16 5 3 5 0 10 -7 10 -7
0 -1 8 15 18 15 10 24 22 20 27 -5 4 -3 5 3 2 7 -4 15 0 18 9 3 9 11 12 18 8
8 -5 9 -2 4 12 -4 10 -4 15 0 11 4 -4 13 2 21 13 8 11 20 20 28 20 7 0 16 6
18 13 4 9 6 9 6 -1 1 -17 -24 -43 -33 -35 -3 4 -6 1 -6 -6 0 -16 -25 -41 -40
-41 -6 0 -8 -4 -5 -10 3 -5 -2 -10 -11 -10 -10 0 -14 -3 -11 -7 4 -3 0 -15
-10 -25 -15 -17 -15 -18 13 -18 27 0 55 20 157 114 10 9 39 29 65 43 26 14 55
31 65 37 10 6 32 38 49 71 41 81 59 95 133 95 51 0 64 -4 88 -25 41 -39 38
-99 -9 -176 l-35 -59 -58 0 c-64 0 -73 -6 -143 -91 -20 -25 -54 -54 -75 -64
-21 -10 -46 -22 -55 -26 -27 -14 -49 -11 -126 15 -39 14 -74 21 -77 16 -3 -4
7 -11 23 -15 15 -4 22 -9 15 -12 -21 -8 28 -53 57 -53 15 0 30 3 34 7 10 10
90 11 96 2 3 -4 39 -10 80 -13 41 -4 92 -8 113 -10 20 -2 37 -1 37 3 0 4 43 7
95 7 67 -1 95 2 95 11 0 6 -5 15 -11 19 -10 6 0 13 76 61 11 7 36 20 55 30 19
10 37 20 40 23 3 3 20 19 39 35 l34 30 -6 -60 c-5 -53 -3 -63 19 -92 14 -18
38 -40 54 -48 27 -14 28 -18 18 -40 -6 -14 -26 -34 -43 -45 -17 -11 -39 -28
-49 -39 -17 -19 -17 -20 11 -33 15 -7 43 -13 60 -13 19 0 35 -5 38 -13 3 -7 8
-11 13 -8 16 10 34 -13 33 -40 -1 -16 -2 -37 -2 -47 0 -9 -4 -15 -9 -12 -5 3
-11 -4 -15 -15 -3 -11 -11 -20 -17 -20 -6 0 -8 -3 -5 -6 3 -4 2 -15 -3 -24 -7
-13 -5 -21 4 -30 17 -13 38 -70 27 -70 -5 0 -7 -14 -5 -30 2 -17 -1 -30 -7
-30 -8 0 -7 -5 1 -15 7 -8 8 -15 3 -15 -5 0 -10 -63 -10 -150 0 -83 3 -150 8
-150 9 0 9 1 11 -152 0 -77 -3 -123 -11 -132 -18 -21 -23 -51 -26 -154 -2 -77
-6 -96 -21 -108 -18 -14 -18 -14 1 -7 17 6 18 5 5 -9 -8 -9 -17 -15 -20 -15
-3 1 -5 -1 -5 -4 0 -3 -8 -14 -18 -24 -26 -26 -9 -37 54 -33 l54 3 6 40 c4 21
11 41 17 43 6 2 8 10 5 18 -3 8 1 14 11 14 10 0 13 6 10 15 -4 8 -2 15 2 15 5
0 9 37 9 83 0 45 3 87 7 92 3 6 7 15 8 20 1 6 6 9 11 8 4 -2 6 4 3 12 -4 8 -2
15 3 15 5 0 10 7 10 15 0 8 -5 11 -10 8 -6 -4 -8 0 -4 10 3 10 3 17 -2 17 -10
0 -8 31 3 49 7 11 10 11 17 0 6 -11 12 -9 28 5 11 10 20 21 20 25 -1 3 2 17 7
31 4 14 8 27 8 30 0 11 30 35 45 35 9 0 22 14 30 30 8 17 21 36 30 43 13 11
13 12 1 6 -12 -6 -13 -4 -2 7 15 16 16 51 1 66 -8 8 -4 17 13 33 12 13 16 20
8 16 -8 -4 -6 1 6 11 11 10 19 24 16 31 -2 6 5 12 15 12 14 0 15 2 4 9 -11 7
-10 13 3 33 9 14 13 28 9 33 -5 4 -2 5 4 1 7 -4 23 0 35 8 12 9 19 16 14 16
-5 0 -4 6 2 13 6 7 7 18 3 25 -9 15 -3 62 11 79 5 7 7 17 3 23 -3 5 -1 10 4
10 6 0 10 3 9 7 -3 17 15 42 26 36 6 -4 6 -1 -2 9 -10 13 -9 17 10 22 19 5 20
8 8 15 -12 9 -12 11 3 17 19 7 32 -1 32 -19 0 -5 6 -12 14 -15 9 -3 11 0 7 7
-4 7 -2 18 4 26 6 8 8 20 4 26 -4 7 -3 9 4 5 7 -4 13 7 18 29 3 19 10 35 15
35 5 0 9 7 9 16 0 8 4 13 9 10 5 -3 9 19 9 48 -1 58 7 80 24 70 7 -4 8 -2 4 4
-8 13 28 35 39 24 5 -4 5 -1 1 6 -9 14 38 75 49 64 5 -4 5 -1 1 6 -13 21 17
37 79 41 82 5 92 13 99 91 1 14 6 32 11 40 5 8 10 53 11 100 2 47 3 85 4 85 1
0 3 9 5 20 2 11 16 30 30 43 14 12 27 31 28 42 1 15 4 17 16 7 12 -10 13 -9 6
2 -6 11 -3 13 13 9 12 -3 22 -2 24 4 3 8 25 15 56 17 7 1 10 6 7 11 -3 6 -1
10 4 10 6 0 11 -6 11 -12 0 -10 2 -10 9 0 4 8 11 13 15 12 4 -1 17 1 29 5 12
4 27 8 32 10 6 1 13 3 18 5 4 1 12 4 17 5 6 1 12 4 15 5 10 5 25 8 51 9 14 0
22 5 19 11 -3 5 0 7 8 4 7 -2 27 0 43 6 16 6 29 10 29 9 0 -1 10 3 23 10 20
11 60 20 100 23 6 1 12 5 12 8 0 4 31 8 69 8 38 0 77 4 87 9 22 11 64 11 82 0
7 -5 12 -3 12 5 0 10 2 10 8 1 4 -7 33 -14 64 -15 31 -2 54 -6 51 -10 -2 -5
-1 -8 4 -9 37 -3 58 -13 75 -34 40 -51 125 -73 178 -45 34 17 80 61 80 76 0
15 17 22 48 19 12 -1 22 2 22 7 0 4 17 11 39 14 32 5 39 10 39 30 0 22 -9 29
-30 25 -4 0 -20 4 -35 10 -15 6 -39 12 -53 14 -13 1 -29 10 -35 20 -19 31 -40
50 -70 64 -27 13 -46 15 -105 12 -10 -1 -34 -14 -52 -29 -25 -21 -43 -28 -73
-28 -22 1 -43 -3 -47 -8 -3 -5 -19 -10 -35 -11 -15 -1 -37 -6 -48 -12 -27 -14
-143 -15 -167 -2 -16 9 -19 8 -12 -3 6 -10 5 -11 -7 -1 -9 7 -29 14 -45 16
-17 2 -36 7 -43 12 -10 6 -12 4 -6 -6 7 -11 6 -12 -7 -2 -8 7 -27 14 -42 15
-14 1 -26 6 -26 11 0 4 -4 5 -10 2 -5 -3 -10 -2 -10 4 0 5 -9 8 -20 6 -11 -2
-20 -1 -20 3 0 4 -12 9 -26 10 -15 1 -34 8 -42 15 -13 10 -14 9 -7 -3 4 -8 -8
2 -28 24 -22 23 -43 36 -51 33 -8 -3 -20 0 -26 8 -6 7 -20 11 -31 8 -12 -4
-25 0 -30 8 -7 11 -9 11 -9 1 0 -10 -5 -10 -20 -2 -10 6 -47 12 -82 13 -52 3
-63 6 -62 20 1 9 -5 17 -13 17 -8 0 -11 5 -8 10 3 6 -2 10 -13 10 -20 0 -52
29 -52 48 0 7 -4 12 -9 12 -11 0 -9 100 2 118 5 7 5 12 0 11 -22 -4 -33 3 -33
21 0 43 -25 76 -54 71 -11 -2 -35 32 -29 41 2 5 -6 12 -19 17 -13 6 -17 10 -9
10 10 1 7 7 -7 20 -12 10 -22 26 -22 36 0 10 -3 16 -6 13 -7 -8 -54 36 -54 51
0 6 -10 11 -21 11 -19 0 -20 2 -8 17 10 11 10 14 2 9 -7 -4 -13 -2 -13 4 0 6
-6 10 -12 9 -36 -4 -56 2 -54 17 3 18 -38 64 -56 64 -6 0 -8 3 -5 7 4 3 2 12
-4 19 -8 9 -5 15 10 24 12 6 21 15 21 21 0 6 -4 7 -10 4 -5 -3 -10 3 -10 15 0
12 5 18 10 15 6 -3 10 -2 10 4 0 5 -5 13 -12 17 -8 5 -6 10 5 19 10 7 14 20
10 33 -5 20 -25 33 -22 15 4 -23 -3 -33 -21 -33 -13 0 -18 5 -14 15 4 8 -1 17
-10 21 -9 3 -16 17 -16 31 0 13 -4 21 -10 18 -9 -5 -16 32 -11 58 1 5 -3 6 -8
3 -13 -8 -18 30 -10 74 7 43 2 60 -17 60 -9 0 -12 5 -8 12 4 6 3 8 -3 5 -13
-8 -57 29 -49 42 4 5 2 12 -4 16 -6 4 -8 11 -5 16 4 5 2 9 -2 9 -13 0 -12 74
1 83 8 6 8 10 -2 14 -6 2 -10 9 -6 14 3 5 -2 9 -12 9 -11 0 -15 6 -11 20 3 12
0 20 -7 20 -7 0 -13 15 -13 38 -1 61 -7 92 -17 92 -5 0 -6 3 -3 6 3 4 -2 18
-13 31 -10 13 -16 31 -13 39 4 10 0 12 -13 7 -11 -4 -15 -3 -11 4 4 6 -1 17
-10 24 -14 12 -16 12 -9 -1 6 -12 5 -12 -6 1 -13 16 -48 33 -60 31 -4 -1 -5 5
-2 13 4 8 1 15 -6 15 -6 0 -18 7 -26 15 -12 12 -12 15 -2 15 10 0 10 2 -1 9
-11 7 -14 31 -14 95 0 47 -3 86 -7 86 -12 0 -41 80 -34 92 4 7 2 8 -4 4 -8 -5
-12 1 -12 14 0 12 -4 18 -10 15 -5 -3 -10 3 -10 14 0 12 -5 21 -11 21 -8 0 -7
6 2 17 8 10 9 14 2 10 -6 -4 -14 -3 -18 2 -3 5 -19 16 -35 25 -17 8 -27 10
-24 4 4 -7 2 -8 -4 -4 -14 9 -12 56 3 56 5 0 3 5 -5 10 -13 8 -12 11 5 24 19
14 16 15 -35 16 -49 0 -56 -3 -57 -20z m649 -1605 c19 0 14 -11 -6 -11 -12 0
-23 6 -23 13 0 6 5 9 11 5 6 -4 14 -7 18 -7z m53 -24 c-3 -6 -11 -11 -16 -11
-5 0 -4 6 3 14 14 16 24 13 13 -3z m23 -17 c-1 -5 -9 -9 -16 -10 -10 -2 -11 1
-1 12 12 14 24 13 17 -2z m78 4 c4 -7 4 -10 -1 -6 -4 4 -15 2 -24 -5 -14 -11
-14 -10 -2 6 16 20 18 21 27 5z m-1772 -74 c5 -14 4 -15 -9 -4 -17 14 -19 20
-6 20 5 0 12 -7 15 -16z m729 -33 c-3 -13 -11 -17 -24 -14 -24 7 -24 12 -2 29
22 15 33 10 26 -15z m96 -168 c-1 -10 -1 -31 0 -48 1 -23 3 -27 11 -15 8 13
10 12 10 -2 0 -19 -8 -22 -26 -10 -13 8 -15 92 -2 92 5 0 8 -8 7 -17z m127
-38 c-3 -10 1 -15 12 -15 10 0 23 -5 30 -12 8 -8 12 -9 12 -1 0 12 60 -13 71
-30 3 -5 9 -8 13 -7 13 2 36 -29 26 -35 -5 -3 -10 -3 -10 2 0 13 -66 54 -91
57 -44 5 -79 24 -73 41 3 8 8 15 11 15 3 0 3 -7 -1 -15z m444 -675 c-6 -11
-13 -20 -16 -20 -3 0 -2 5 1 10 3 6 1 10 -4 10 -6 0 -11 -6 -11 -14 0 -16 -70
-92 -82 -88 -5 1 -13 -9 -18 -22 -12 -33 -25 -39 -41 -18 -7 9 -10 14 -6 11 5
-4 44 29 87 72 77 78 112 101 90 59z m-689 -5 c-1 -6 -5 -10 -10 -10 -5 0 -13
-3 -17 -7 -4 -5 -47 -8 -96 -8 -55 0 -88 -4 -88 -11 0 -5 -4 -7 -10 -4 -9 6
-14 -8 -11 -28 1 -5 -2 -6 -7 -3 -10 6 -43 -30 -35 -38 4 -3 0 -6 -7 -6 -7 0
-11 -3 -7 -6 8 -8 -25 -44 -41 -44 -7 0 -10 -4 -7 -10 6 -9 -7 -14 -27 -11 -4
0 -5 -6 -2 -13 3 -9 -3 -17 -15 -21 -12 -3 -19 -10 -17 -14 3 -4 -4 -12 -15
-19 -42 -26 -16 12 56 85 41 41 73 79 70 83 -3 5 7 16 22 24 17 9 22 16 13 16
-8 1 -1 8 15 15 17 8 65 14 111 15 61 0 85 4 94 15 14 17 32 16 31 0z m50 -20
c5 4 6 -2 2 -11 -4 -11 -8 -13 -11 -6 -2 7 -8 10 -13 6 -11 -6 -12 19 -1 30 4
4 8 1 10 -8 2 -9 8 -14 13 -11z m49 -26 c0 -4 14 -12 30 -19 17 -7 30 -16 30
-21 0 -5 15 -9 33 -9 23 0 28 -3 18 -9 -9 -6 -24 -5 -39 0 -14 5 -27 7 -30 4
-3 -2 -15 7 -28 20 -13 14 -28 24 -35 23 -6 -2 -13 2 -15 7 -2 6 5 11 16 11
11 0 20 -3 20 -7z m379 -29 c9 -13 11 -21 4 -17 -8 5 -14 -5 -19 -30 -5 -21
-7 -44 -6 -50 2 -7 -2 -13 -8 -13 -6 0 -8 -5 -4 -12 4 -6 3 -8 -4 -4 -8 4 -6
21 4 56 17 57 12 75 -16 58 -10 -7 -17 -15 -14 -19 18 -29 -136 -50 -164 -22
-7 7 -9 13 -3 13 5 0 13 -5 16 -10 5 -8 11 -7 21 1 10 8 14 8 14 0 0 -12 38
-15 64 -5 9 3 13 10 10 15 -3 5 -2 8 3 7 13 -4 53 35 46 45 -3 6 -1 7 5 3 7
-4 12 -2 12 4 0 18 21 7 39 -20z m14 -119 c-22 -22 -30 -25 -29 -13 2 25 38
64 50 52 5 -5 -3 -20 -21 -39z"/>
<path d="M4145 2880 c3 -5 8 -10 11 -10 2 0 4 5 4 10 0 6 -5 10 -11 10 -5 0
-7 -4 -4 -10z"/>
<path d="M3914 4072 c7 -12 -49 -64 -59 -55 -4 5 -5 2 0 -5 5 -11 15 -6 41 19
28 27 36 49 18 49 -3 0 -3 -4 0 -8z"/>
<path d="M2855 4020 c3 -5 11 -10 16 -10 6 0 7 5 4 10 -3 6 -11 10 -16 10 -6
0 -7 -4 -4 -10z"/>
<path d="M3351 3951 c-10 -6 -4 -11 19 -16 18 -4 64 -20 104 -37 39 -16 82
-31 96 -33 14 -2 33 -6 43 -10 23 -10 22 7 -3 22 -12 8 -21 9 -25 3 -11 -17
-24 -11 -31 15 -3 14 -10 22 -15 19 -5 -3 -9 -1 -9 4 0 5 -34 12 -76 14 -42 3
-79 10 -83 16 -4 6 -12 7 -20 3z"/>
<path d="M3080 3756 c0 -2 8 -10 18 -17 15 -13 16 -12 3 4 -13 16 -21 21 -21
13z"/>
<path d="M2517 3653 c-4 -3 -7 -11 -7 -17 0 -6 5 -5 12 2 6 6 9 14 7 17 -3 3
-9 2 -12 -2z"/>
<path d="M3297 3493 c-4 -3 -7 -11 -7 -17 0 -6 5 -4 10 4 8 13 10 12 10 -2 0
-23 16 -23 24 -1 4 10 4 14 0 10 -4 -4 -12 -2 -19 3 -7 5 -15 7 -18 3z"/>
<path d="M3334 3448 c-4 -7 -4 -10 1 -6 4 4 14 1 22 -7 8 -8 20 -15 26 -14 8
0 8 2 -1 6 -6 2 -9 10 -5 16 3 7 3 9 -2 5 -4 -4 -14 -3 -21 3 -9 7 -14 6 -20
-3z"/>
<path d="M3510 3296 c0 -2 8 -10 18 -17 15 -13 16 -12 3 4 -13 16 -21 21 -21
13z"/>
<path d="M3346 2963 c-11 -11 -6 -23 8 -23 7 0 18 6 24 13 8 10 6 13 -8 14
-10 1 -21 -1 -24 -4z"/>
<path d="M2860 2370 c0 -5 5 -10 11 -10 5 0 7 5 4 10 -3 6 -8 10 -11 10 -2 0
-4 -4 -4 -10z"/>
</g>
</svg>
